<svg width="1440" height="1413" viewBox="0 0 1440 1413" fill="none" xmlns="http://www.w3.org/2000/svg">
<path d="M1514 671.5C1514 1042.36 1158.96 1343 721 1343C283.038 1343 -72 1042.36 -72 671.5C-72 300.641 283.038 0 721 0C1158.96 0 1514 300.641 1514 671.5Z" fill="url(#paint0_linear_1865_10959)" fill-opacity="0.05"/>
<path d="M1514 699.5C1514 1070.36 1158.96 1371 721 1371C283.038 1371 -72 1070.36 -72 699.5C-72 328.641 283.038 28 721 28C1158.96 28 1514 328.641 1514 699.5Z" fill="url(#paint1_linear_1865_10959)" fill-opacity="0.1"/>
<path d="M1514 741.5C1514 1112.36 1158.96 1413 721 1413C283.038 1413 -72 1112.36 -72 741.5C-72 370.641 283.038 70 721 70C1158.96 70 1514 370.641 1514 741.5Z" fill="url(#paint2_linear_1865_10959)" fill-opacity="0.15"/>
<defs>
<linearGradient id="paint0_linear_1865_10959" x1="721" y1="0" x2="721" y2="1343" gradientUnits="userSpaceOnUse">
<stop stop-color="white"/>
<stop offset="0.182692" stop-color="white" stop-opacity="0"/>
</linearGradient>
<linearGradient id="paint1_linear_1865_10959" x1="721" y1="28" x2="721" y2="1371" gradientUnits="userSpaceOnUse">
<stop stop-color="white"/>
<stop offset="0.182692" stop-color="white" stop-opacity="0"/>
</linearGradient>
<linearGradient id="paint2_linear_1865_10959" x1="721" y1="70" x2="721" y2="1413" gradientUnits="userSpaceOnUse">
<stop stop-color="white"/>
<stop offset="0.182692" stop-color="white" stop-opacity="0"/>
</linearGradient>
</defs>
</svg>
