<svg width="497" height="392" viewBox="0 0 497 392" fill="none" xmlns="http://www.w3.org/2000/svg">
<path d="M68.4837 233.09L1 169.639M68.4837 233.09L178.861 233.275M68.4837 233.09L171.835 131.347M68.4837 233.09L31.0595 326.937M68.4837 233.09L78 126M68.4837 233.09L99.2047 313.893M187.921 296.911L229.428 265M187.921 296.911L270.935 233.09M187.921 296.911L178.861 233.275M187.921 296.911L229.428 333M187.921 296.911L127 387M187.921 296.911L99.2047 313.893M31.0595 326.937L127 387M31.0595 326.937L99.2047 313.893M294.415 328.359L479.302 345.378M294.415 328.359L270.935 233.09M294.415 328.359L291.272 375.253M294.415 328.359L229.428 265M294.415 328.359L438.812 387M294.415 328.359L229.428 333M479.302 345.378L438.812 387M479.302 345.378V209.592M479.302 345.378L415.5 216.787M171.835 131.347L178.861 233.275M171.835 131.347L280.549 109.888M171.835 131.347L292.5 36M171.835 131.347L191.064 5M171.835 131.347L221.385 182.218M171.835 131.347L78 126M127 387L291.272 375.253M127 387L229.428 333M127 387L99.2047 313.893M1 169.639L78 126M1 169.639L40.0111 19.799M78 126L391.296 26.2736M78 126L191.064 5M78 126L40.0111 19.799M391.296 26.2736L280.549 109.888M391.296 26.2736L479.302 209.592M391.296 26.2736L292.5 36M391.296 26.2736L415.5 216.787M438.812 387L291.272 375.253M438.812 387L415.5 216.787M438.812 387L364 267M229.428 265L221.385 182.218M280.549 109.888L270.935 233.09M280.549 109.888L178.861 233.275M280.549 109.888L415.5 216.787M280.549 109.888L292.5 36M191.064 5L292.5 36M191.064 5L40.0111 19.799M479.302 209.592L270.935 233.09M270.935 233.09L221.385 182.218M270.935 233.09L364 267M178.861 233.275L99.2047 313.893M291.272 375.253L229.428 333M415.5 216.787L364 267" stroke="white" stroke-opacity="0.5" stroke-linecap="round"/>
<circle cx="280" cy="110" r="5" fill="#D0D0D0"/>
<circle cx="364" cy="267" r="5" fill="#D0D0D0"/>
<circle cx="173" cy="133" r="5" fill="#D0D0D0"/>
<circle cx="191" cy="5" r="5" fill="#D0D0D0"/>
<circle cx="292" cy="36" r="5" fill="#D0D0D0"/>
<circle cx="79" cy="126" r="5" fill="#D0D0D0"/>
<circle cx="69" cy="235" r="5" fill="#D0D0D0"/>
<circle cx="189" cy="298" r="5" fill="#D0D0D0"/>
<circle cx="271" cy="234" r="5" fill="#D0D0D0"/>
<circle cx="128" cy="387" r="5" fill="#D0D0D0"/>
<circle cx="295" cy="329" r="5" fill="#D0D0D0"/>
<g filter="url(#filter0_f_1865_10967)">
<ellipse cx="249.5" cy="195" rx="212.5" ry="127" fill="url(#paint0_radial_1865_10967)"/>
</g>
<path d="M154.57 204V187.031H165.445V189.586H157.617V194.227H164.695V196.781H157.617V204H154.57ZM167.543 204V187.031H178.583V189.586H170.59V194.227H177.997V196.781H170.59V201.422H178.629V204H167.543ZM186.798 204H181.032V187.031H186.892C191.954 187.031 195.024 190.219 195.024 195.492C195.024 200.789 191.954 204 186.798 204ZM184.079 201.352H186.634C190.173 201.352 191.978 199.406 191.978 195.492C191.978 191.602 190.173 189.68 186.728 189.68H184.079V201.352ZM200.287 187.031V204H197.24V187.031H200.287ZM202.221 189.586V187.031H215.744V189.586H210.518V204H207.471V189.586H202.221ZM222.87 204V187.031H233.745V189.586H225.917V194.227H232.995V196.781H225.917V204H222.87ZM235.867 204H232.609L238.585 187.031H242.335L248.335 204H245.077L243.671 199.805H237.273L235.867 204ZM238.093 197.344H242.851L240.531 190.5H240.39L238.093 197.344ZM258.848 191.695C258.707 190.242 257.465 189.398 255.637 189.398C253.715 189.398 252.543 190.336 252.543 191.602C252.543 193.031 254.043 193.617 255.449 193.945L257.043 194.367C259.574 194.953 262.012 196.289 262.012 199.242C262.012 202.219 259.668 204.258 255.59 204.258C251.629 204.258 249.144 202.359 249.004 199.008H252.004C252.144 200.789 253.644 201.656 255.566 201.656C257.582 201.656 258.965 200.672 258.965 199.219C258.965 197.883 257.723 197.32 255.894 196.852L253.973 196.359C251.183 195.633 249.449 194.227 249.449 191.789C249.449 188.789 252.121 186.797 255.683 186.797C259.293 186.797 261.73 188.836 261.777 191.695H258.848ZM264.063 204V187.031H267.11V194.227H275.008V187.031H278.078V204H275.008V196.781H267.11V204H264.063ZM283.786 187.031V204H280.739V187.031H283.786ZM301.611 195.516C301.611 201 298.283 204.234 293.829 204.234C289.376 204.234 286.048 200.977 286.048 195.516C286.048 190.031 289.376 186.797 293.829 186.797C298.283 186.797 301.611 190.031 301.611 195.516ZM298.54 195.516C298.54 191.648 296.595 189.539 293.829 189.539C291.064 189.539 289.118 191.648 289.118 195.516C289.118 199.383 291.064 201.492 293.829 201.492C296.595 201.492 298.54 199.383 298.54 195.516ZM317.795 187.031V204H315.076L307.037 192.398H306.896V204H303.849V187.031H306.615L314.607 198.633H314.771V187.031H317.795ZM327.827 204H324.569L330.546 187.031H334.296L340.296 204H337.038L335.632 199.805H329.233L327.827 204ZM330.053 197.344H334.811L332.491 190.5H332.35L330.053 197.344ZM344.878 187.031V204H341.831V187.031H344.878Z" fill="#242628"/>
<defs>
<filter id="filter0_f_1865_10967" x="2.3" y="33.3" width="494.4" height="323.4" filterUnits="userSpaceOnUse" color-interpolation-filters="sRGB">
<feFlood flood-opacity="0" result="BackgroundImageFix"/>
<feBlend mode="normal" in="SourceGraphic" in2="BackgroundImageFix" result="shape"/>
<feGaussianBlur stdDeviation="17.35" result="effect1_foregroundBlur_1865_10967"/>
</filter>
<radialGradient id="paint0_radial_1865_10967" cx="0" cy="0" r="1" gradientUnits="userSpaceOnUse" gradientTransform="translate(249.5 195) rotate(90) scale(127 212.5)">
<stop stop-color="white" stop-opacity="0.8"/>
<stop offset="0.0817308" stop-color="white" stop-opacity="0.8"/>
<stop offset="0.725962" stop-color="white" stop-opacity="0.283654"/>
<stop offset="1" stop-color="white" stop-opacity="0"/>
</radialGradient>
</defs>
</svg>
