<?xml version="1.0" encoding="UTF-8"?>
<svg id="Layer_2" data-name="Layer 2" xmlns="http://www.w3.org/2000/svg" viewBox="0 0 632.23 255.13">
  <defs>
    <style>
      .cls-1 {
        fill: #2d2d2d;
      }

      .cls-2 {
        fill: none;
        stroke: #2d2d2d;
        stroke-miterlimit: 10;
        stroke-width: 35px;
      }
    </style>
  </defs>
  <g id="Layer_1-2" data-name="Layer 1">
    <line class="cls-2" x1="514.78" y1="108.09" x2="632.23" y2="108.09"/>
    <path class="cls-2" d="M562.45,7.64v167.05c0,34.76,28.18,62.94,62.94,62.94h0"/>
    <line class="cls-2" x1="477.63" y1="109.75" x2="477.63" y2="245.7"/>
    <circle class="cls-1" cx="109.31" cy="127.47" r="21.38"/>
    <circle class="cls-1" cx="477.63" cy="71.81" r="21.38"/>
    <circle class="cls-2" cx="355.52" cy="176.29" r="50.83"/>
    <line class="cls-2" x1="406.35" y1="7.64" x2="406.35" y2="245.7"/>
    <path class="cls-1" d="M93.19,245.7H0V106.09h.8c51.03,0,92.39,41.36,92.39,92.39v47.22Z"/>
    <path class="cls-1" d="M0,93.19V0h118.86c25.73,0,46.6,20.86,46.6,46.6h0c0,25.73-20.86,46.6-46.6,46.6H0Z"/>
    <path class="cls-1" d="M173.28,238.31c-10.05-5.45-17.79-13.31-23.2-23.56-5.41-10.26-8.12-22.42-8.12-36.51s2.71-25.58,8.12-35.96c5.41-10.38,13.08-18.39,23.01-24.05,9.93-5.66,21.45-8.49,34.55-8.49s23.6,2.61,33.21,7.81c9.6,5.21,17.09,12.9,22.47,23.08,5.37,10.18,8.06,22.38,8.06,36.63v10.62h-114.53v-24.3h76.19c0-4.64-1.08-8.79-3.24-12.45-2.16-3.66-5.09-6.51-8.79-8.55-3.71-2.03-7.92-3.05-12.64-3.05s-9.28,1.08-13.19,3.24c-3.91,2.16-6.96,5.13-9.16,8.91-2.2,3.79-3.38,8-3.54,12.64v24.3c0,5.62,1.1,10.56,3.3,14.83,2.2,4.27,5.35,7.55,9.46,9.83,4.11,2.28,8.89,3.42,14.35,3.42,3.66,0,7.04-.53,10.13-1.59,3.09-1.06,5.72-2.5,7.88-4.33,2.16-1.83,3.76-4.01,4.82-6.53h38.46c-1.63,8.47-5.15,15.89-10.56,22.28-5.41,6.39-12.54,11.31-21.37,14.77-8.83,3.46-18.86,5.19-30.1,5.19-13.67,0-25.54-2.73-35.59-8.18Z"/>
  </g>
</svg>