<svg width="36" height="36" viewBox="0 0 36 36" fill="none" xmlns="http://www.w3.org/2000/svg">
<path d="M8 0.5H28C32.1421 0.5 35.5 3.85786 35.5 8V28C35.5 32.1421 32.1421 35.5 28 35.5H8C3.85786 35.5 0.5 32.1421 0.5 28V8C0.5 3.85786 3.85786 0.5 8 0.5Z" fill="white"/>
<path d="M8 0.5H28C32.1421 0.5 35.5 3.85786 35.5 8V28C35.5 32.1421 32.1421 35.5 28 35.5H8C3.85786 35.5 0.5 32.1421 0.5 28V8C0.5 3.85786 3.85786 0.5 8 0.5Z" stroke="#E4E4E4"/>
<path d="M21.4161 20.3634C22.4894 20.3634 23.3595 19.4933 23.3595 18.42C23.3595 17.3467 22.4894 16.4766 21.4161 16.4766C20.3428 16.4766 19.4727 17.3467 19.4727 18.42C19.4727 19.4933 20.3428 20.3634 21.4161 20.3634Z" fill="#1E1E1E"/>
<path d="M19.9504 29.167H11.4795V16.4766H11.5522C16.1908 16.4766 19.9504 20.2361 19.9504 24.8747V29.167Z" fill="#1E1E1E"/>
<path d="M11.4795 15.304V6.83313H22.2837C24.6226 6.83313 26.5196 8.72928 26.5196 11.069C26.5196 13.4078 24.6235 15.3049 22.2837 15.3049H11.4795V15.304Z" fill="#1E1E1E"/>
</svg>
