<svg width="20" height="20" viewBox="0 0 20 20" fill="none" xmlns="http://www.w3.org/2000/svg">
<mask id="mask0_8194_3550" style="mask-type:alpha" maskUnits="userSpaceOnUse" x="0" y="0" width="20" height="20">
<rect width="20" height="20" fill="#D9D9D9"/>
</mask>
<g mask="url(#mask0_8194_3550)">
<path d="M9.99977 10.8779L5.77227 15.1056C5.65685 15.2209 5.51178 15.2799 5.33706 15.2827C5.16247 15.2853 5.01477 15.2263 4.89393 15.1056C4.77324 14.9848 4.71289 14.8384 4.71289 14.6664C4.71289 14.4945 4.77324 14.3481 4.89393 14.2273L9.12164 9.99977L4.89393 5.77227C4.77865 5.65685 4.71963 5.51178 4.71685 5.33706C4.71421 5.16247 4.77324 5.01477 4.89393 4.89393C5.01477 4.77324 5.16115 4.71289 5.3331 4.71289C5.50504 4.71289 5.65143 4.77324 5.77227 4.89393L9.99977 9.12164L14.2273 4.89393C14.3427 4.77865 14.4878 4.71963 14.6625 4.71685C14.8371 4.71421 14.9848 4.77324 15.1056 4.89393C15.2263 5.01477 15.2866 5.16115 15.2866 5.3331C15.2866 5.50504 15.2263 5.65143 15.1056 5.77227L10.8779 9.99977L15.1056 14.2273C15.2209 14.3427 15.2799 14.4878 15.2827 14.6625C15.2853 14.8371 15.2263 14.9848 15.1056 15.1056C14.9848 15.2263 14.8384 15.2866 14.6664 15.2866C14.4945 15.2866 14.3481 15.2263 14.2273 15.1056L9.99977 10.8779Z" fill="#6F7173"/>
</g>
</svg>
