<svg width="24" height="24" viewBox="0 0 24 24" fill="none" xmlns="http://www.w3.org/2000/svg">
<mask id="mask0_8194_20997" style="mask-type:alpha" maskUnits="userSpaceOnUse" x="0" y="0" width="24" height="24">
<rect width="24" height="24" fill="#D9D9D9"/>
</mask>
<g mask="url(#mask0_8194_20997)">
<path d="M11.25 11.1365V14.9423C11.25 15.1547 11.3219 15.3329 11.4658 15.4768C11.6096 15.6204 11.7878 15.6923 12.0003 15.6923C12.2129 15.6923 12.3927 15.6195 12.5395 15.474C12.6862 15.3283 12.7595 15.1479 12.7595 14.9327V11.1365L14.0922 12.4692C14.2308 12.6077 14.4048 12.6753 14.6145 12.672C14.824 12.6688 14.998 12.598 15.1365 12.4595C15.275 12.3212 15.3443 12.1467 15.3443 11.936C15.3443 11.7253 15.275 11.5518 15.1365 11.4155L12.6423 8.93075C12.4616 8.75008 12.2507 8.65975 12.0095 8.65975C11.7685 8.65975 11.5577 8.75008 11.377 8.93075L8.88275 11.425C8.74425 11.5635 8.675 11.7359 8.675 11.9423C8.675 12.1488 8.74425 12.3212 8.88275 12.4595C9.02125 12.598 9.19583 12.6673 9.4065 12.6673C9.61717 12.6673 9.79067 12.598 9.927 12.4595L11.25 11.1365ZM12.0017 21.5C10.6877 21.5 9.45267 21.2507 8.2965 20.752C7.14033 20.2533 6.13467 19.5766 5.2795 18.7218C4.42433 17.8669 3.74725 16.8617 3.24825 15.706C2.74942 14.5503 2.5 13.3156 2.5 12.0017C2.5 10.6877 2.74933 9.45267 3.248 8.2965C3.74667 7.14033 4.42342 6.13467 5.27825 5.2795C6.13308 4.42433 7.13833 3.74725 8.294 3.24825C9.44967 2.74942 10.6844 2.5 11.9983 2.5C13.3123 2.5 14.5473 2.74933 15.7035 3.248C16.8597 3.74667 17.8653 4.42342 18.7205 5.27825C19.5757 6.13308 20.2528 7.13833 20.7518 8.294C21.2506 9.44967 21.5 10.6844 21.5 11.9983C21.5 13.3123 21.2507 14.5473 20.752 15.7035C20.2533 16.8597 19.5766 17.8653 18.7218 18.7205C17.8669 19.5757 16.8617 20.2528 15.706 20.7518C14.5503 21.2506 13.3156 21.5 12.0017 21.5Z" fill="white"/>
</g>
</svg>
