<svg width="18.4" height="21.6" viewBox="2.8 0.8 18.4 21.6" fill="none" xmlns="http://www.w3.org/2000/svg">
<path d="M7 9.99999V6.79999C7 5.47391 7.52678 4.20214 8.46447 3.26445C9.40215 2.32677 10.6739 1.79999 12 1.79999C13.3261 1.79999 14.5979 2.32677 15.5355 3.26445C16.4732 4.20214 17 5.47391 17 6.79999V9.99999H14.8V6.79999C14.8 6.05738 14.505 5.34519 13.9799 4.82009C13.4548 4.29499 12.7426 3.99999 12 3.99999C11.2574 3.99999 10.5452 4.29499 10.0201 4.82009C9.495 5.34519 9.2 6.05738 9.2 6.79999V9.99999H7Z" fill="#A1A3A5"/>
<path d="M18.7998 9.59961C19.1711 9.59961 19.5275 9.74725 19.79 10.0098C20.0526 10.2723 20.2002 10.6287 20.2002 11L18.5 20C18.451 20.3888 18.2607 20.7459 17.9658 21.0039C17.6709 21.262 17.2913 21.4035 16.8994 21.4004H7.09961C6.70781 21.4034 6.32807 21.2619 6.0332 21.0039C5.73853 20.7459 5.54895 20.3886 5.5 20L3.7998 11C3.79983 10.6287 3.94743 10.2723 4.20996 10.0098C4.47249 9.74737 4.82901 9.59961 5.2002 9.59961H18.7998ZM8 12C7.44772 12 7 12.4477 7 13C7 13.5523 7.44772 14 8 14C8.55228 14 9 13.5523 9 13C9 12.4477 8.55228 12 8 12ZM16 12C15.4477 12 15 12.4477 15 13C15 13.5523 15.4477 14 16 14C16.5523 14 17 13.5523 17 13C17 12.4477 16.5523 12 16 12Z" fill="#3D3F41"/>
</svg>
