<svg width="24" height="24" viewBox="0 0 24 24" fill="none" xmlns="http://www.w3.org/2000/svg">
<path d="M9.37514 10.9153C9.48918 10.8495 9.58387 10.7548 9.6497 10.6407C9.71553 10.5267 9.75017 10.3973 9.75014 10.2656V3.51563C9.74947 3.39605 9.72022 3.27837 9.66483 3.1724C9.60944 3.06643 9.52951 2.97523 9.43171 2.90643C9.33392 2.83762 9.22109 2.7932 9.10263 2.77686C8.98418 2.76052 8.86353 2.77274 8.75076 2.8125C6.56168 3.58726 4.72075 5.11748 3.5589 7.12807C2.39706 9.13865 1.9905 11.4977 2.41232 13.7813C2.43419 13.8993 2.48409 14.0104 2.55783 14.1052C2.63157 14.2 2.72699 14.2757 2.83607 14.3259C2.93438 14.3719 3.04162 14.3956 3.15014 14.3953C3.28177 14.3954 3.41111 14.3608 3.52514 14.295L9.37514 10.9153ZM8.25014 4.65188V9.8325L3.76139 12.4228C3.75014 12.2812 3.75014 12.1388 3.75014 12C3.75147 10.4797 4.17229 8.98928 4.96626 7.69279C5.76023 6.3963 6.89656 5.34404 8.25014 4.65188ZM21.7501 12C21.7509 14.1404 21.0473 16.2216 19.7478 17.9225C18.4484 19.6234 16.6254 20.8493 14.56 21.4113C12.4947 21.9733 10.3018 21.84 8.31973 21.0321C6.33765 20.2241 4.67652 18.7863 3.59264 16.9406C3.54211 16.8554 3.50898 16.761 3.49516 16.6628C3.48134 16.5647 3.48711 16.4648 3.51213 16.3689C3.53715 16.273 3.58092 16.183 3.64092 16.1041C3.70092 16.0253 3.77596 15.9591 3.8617 15.9094L11.2501 11.6091V3C11.2501 2.80109 11.3292 2.61032 11.4698 2.46967C11.6105 2.32902 11.8012 2.25 12.0001 2.25C13.7016 2.25087 15.3732 2.69675 16.849 3.54338C18.3249 4.39001 19.5536 5.60794 20.4133 7.07625C20.4236 7.09125 20.433 7.10625 20.4423 7.12219C20.4517 7.13813 20.4611 7.15688 20.4695 7.17375C21.3107 8.64297 21.7523 10.307 21.7501 12Z" fill="#3D3F41"/>
</svg>
