<svg width="48" height="48" viewBox="0 0 48 48" fill="none" xmlns="http://www.w3.org/2000/svg">
<path d="M18.7498 21.83C18.9778 21.6983 19.1672 21.5089 19.2989 21.2808C19.4305 21.0528 19.4998 20.794 19.4997 20.5307V7.03116C19.4984 6.79202 19.4399 6.55667 19.3291 6.34473C19.2183 6.13279 19.0585 5.95042 18.8629 5.81281C18.6673 5.6752 18.4417 5.58636 18.2048 5.55368C17.9679 5.521 17.7266 5.54544 17.5011 5.62496C13.123 7.17443 9.44132 10.2348 7.11771 14.2558C4.79411 18.2768 3.98103 22.9948 4.82464 27.5617C4.86837 27.7978 4.96816 28.02 5.11564 28.2096C5.26311 28.3992 5.45395 28.5506 5.67211 28.651C5.8687 28.7429 6.08318 28.7903 6.30021 28.7898C6.56347 28.7899 6.82213 28.7207 7.05018 28.5891L18.7498 21.83ZM16.4998 9.30358V19.6645L7.52267 24.8449C7.50017 24.5618 7.50017 24.2768 7.50017 23.9993C7.50283 20.9588 8.34443 17.9781 9.93232 15.3852C11.5202 12.7923 13.7928 10.6879 16.4998 9.30358ZM43.4989 23.9993C43.5004 28.28 42.0932 32.4423 39.4944 35.8439C36.8956 39.2455 33.2497 41.6974 29.1192 42.8213C24.9886 43.9452 20.603 43.6786 16.639 42.0628C12.675 40.4469 9.35286 37.5715 7.18518 33.8802C7.08413 33.7097 7.01787 33.5209 6.99023 33.3246C6.9626 33.1283 6.97413 32.9286 7.02417 32.7368C7.0742 32.545 7.16175 32.365 7.28175 32.2073C7.40175 32.0496 7.55182 31.9172 7.72328 31.8178L22.4996 23.2175V5.99995C22.4996 5.60214 22.6577 5.22062 22.939 4.93932C23.2202 4.65803 23.6018 4.5 23.9996 4.5C27.4023 4.50174 30.7455 5.39347 33.6971 7.08667C36.6486 8.77987 39.106 11.2156 40.8252 14.1522C40.8458 14.1822 40.8646 14.2122 40.8833 14.244C40.9021 14.2759 40.9208 14.3134 40.9377 14.3471C42.6201 17.2855 43.5032 20.6134 43.4989 23.9993Z" fill="#3D3F41"/>
</svg>
