<svg width="18" height="18" viewBox="0 0 18 18" fill="none" xmlns="http://www.w3.org/2000/svg">
<path fill-rule="evenodd" clip-rule="evenodd" d="M0 1.73077C0 0.774462 0.775385 0 1.73077 0H6.57692C7.53323 0 8.30769 0.775385 8.30769 1.73077V13.8462C8.30769 14.9478 7.87006 16.0044 7.09106 16.7834C6.31206 17.5624 5.25551 18 4.15385 18C3.05218 18 1.99563 17.5624 1.21663 16.7834C0.437636 16.0044 0 14.9478 0 13.8462V1.73077ZM4.15385 14.8846C4.42926 14.8846 4.6934 14.7752 4.88815 14.5805C5.0829 14.3857 5.19231 14.1216 5.19231 13.8462C5.19231 13.5707 5.0829 13.3066 4.88815 13.1118C4.6934 12.9171 4.42926 12.8077 4.15385 12.8077C3.87843 12.8077 3.61429 12.9171 3.41954 13.1118C3.22479 13.3066 3.11538 13.5707 3.11538 13.8462C3.11538 14.1216 3.22479 14.3857 3.41954 14.5805C3.61429 14.7752 3.87843 14.8846 4.15385 14.8846Z" fill="#3D3F41"/>
<path d="M7.81754 18H16.2692C17.2255 18 18 17.2246 18 16.2692V11.4231C18 10.4668 17.2246 9.69231 16.2692 9.69231H16.14L8.07046 17.7628C7.98738 17.8449 7.90431 17.9243 7.81754 18ZM9.68123 14.1923L15.6572 8.21631C15.9816 7.89175 16.1639 7.45165 16.1639 6.99277C16.1639 6.53389 15.9816 6.09379 15.6572 5.76923L12.2308 2.34185C11.9062 2.01745 11.4661 1.83522 11.0072 1.83522C10.5483 1.83522 10.1082 2.01745 9.78369 2.34185L9.69138 2.43323V13.8462C9.69138 13.9625 9.68862 14.0778 9.68215 14.1923H9.68123Z" fill="#3D3F41"/>
</svg>
