<svg width="18" height="19" viewBox="0 0 18 19" fill="none" xmlns="http://www.w3.org/2000/svg">
<path d="M9 0C9.5261 1.4589e-07 10.0382 0.170783 10.4609 0.486328L16.8896 4.39551C17.2295 4.61964 17.5093 4.92546 17.7031 5.28516C17.8969 5.64487 17.9986 6.04773 18 6.45703V16.5264C18 17.1822 17.7414 17.8116 17.2812 18.2754C16.821 18.7391 16.1967 18.9999 15.5459 19H2.4541C1.80328 18.9999 1.17896 18.7391 0.71875 18.2754C0.258551 17.8116 0 17.1822 0 16.5264V6.45703C0.00138065 6.04773 0.103079 5.64487 0.296875 5.28516C0.49067 4.92546 0.770482 4.61964 1.11035 4.39551L7.53906 0.486328C7.96181 0.170783 8.4739 0 9 0ZM5 11.166C4.44772 11.166 4 11.6137 4 12.166V15.166C4 15.7183 4.44772 16.166 5 16.166C5.55228 16.166 6 15.7183 6 15.166V12.166C6 11.6137 5.55228 11.166 5 11.166ZM9 7.16602C8.44772 7.16602 8 7.61373 8 8.16602V15.166C8 15.7183 8.44772 16.166 9 16.166C9.55228 16.166 10 15.7183 10 15.166V8.16602C10 7.61373 9.55228 7.16602 9 7.16602ZM13 10.166C12.4477 10.166 12 10.6137 12 11.166V15.166C12 15.7183 12.4477 16.166 13 16.166C13.5523 16.166 14 15.7183 14 15.166V11.166C14 10.6137 13.5523 10.166 13 10.166Z" fill="#3D3F41"/>
</svg>
