<svg width="24" height="24" viewBox="0 0 24 24" fill="none" xmlns="http://www.w3.org/2000/svg">
<mask id="mask0_8266_13926" style="mask-type:alpha" maskUnits="userSpaceOnUse" x="0" y="0" width="24" height="24">
<rect width="24" height="24" fill="#D9D9D9"/>
</mask>
<g mask="url(#mask0_8266_13926)">
<path d="M11.2367 14.6464L6.22275 9.3093C6.15381 9.23562 6.09944 9.15333 6.05967 9.06243C6.01989 8.97181 6 8.87456 6 8.77067C6 8.56318 6.0659 8.3828 6.19769 8.22951C6.32949 8.0765 6.50318 8 6.71878 8H17.2812C17.4968 8 17.6705 8.07735 17.8023 8.23205C17.9341 8.38647 18 8.56671 18 8.77279C18 8.82445 17.9256 9.00329 17.7768 9.3093L12.7633 14.6464C12.6482 14.7692 12.5292 14.8589 12.4061 14.9153C12.2831 14.9718 12.1477 15 12 15C11.8523 15 11.7169 14.9718 11.5939 14.9153C11.4708 14.8589 11.3518 14.7692 11.2367 14.6464Z" fill="#0066FF"/>
</g>
</svg>
