<svg width="20" height="20" viewBox="0 0 20 20" fill="none" xmlns="http://www.w3.org/2000/svg">
<mask id="mask0_7930_38273" style="mask-type:alpha" maskUnits="userSpaceOnUse" x="0" y="0" width="20" height="20">
<rect width="20" height="20" fill="#D9D9D9"/>
</mask>
<g mask="url(#mask0_7930_38273)">
<path d="M9.99967 13.942C10.1904 13.942 10.3502 13.8775 10.4793 13.7484C10.6083 13.6194 10.6728 13.4595 10.6728 13.2688C10.6728 13.0781 10.6083 12.9183 10.4793 12.7893C10.3502 12.6604 10.1904 12.5959 9.99967 12.5959C9.80898 12.5959 9.64912 12.6604 9.52009 12.7893C9.39106 12.9183 9.32655 13.0781 9.32655 13.2688C9.32655 13.4595 9.39106 13.6194 9.52009 13.7484C9.64912 13.8775 9.80898 13.942 9.99967 13.942ZM9.99988 10.8972C10.1771 10.8972 10.3255 10.8372 10.4451 10.7174C10.5648 10.5977 10.6247 10.4493 10.6247 10.2722V6.52218C10.6247 6.34509 10.5647 6.19662 10.4449 6.07676C10.325 5.95704 10.1765 5.89718 9.99947 5.89718C9.82224 5.89718 9.67384 5.95704 9.55426 6.07676C9.43454 6.19662 9.37467 6.34509 9.37467 6.52218V10.2722C9.37467 10.4493 9.43461 10.5977 9.55447 10.7174C9.67433 10.8372 9.8228 10.8972 9.99988 10.8972ZM10.0011 17.9163C8.90613 17.9163 7.8769 17.7086 6.91342 17.293C5.94995 16.8775 5.1119 16.3135 4.39926 15.6011C3.68662 14.8888 3.12238 14.0511 2.70655 13.088C2.29085 12.125 2.08301 11.096 2.08301 10.0011C2.08301 8.90613 2.29079 7.8769 2.70634 6.91342C3.1219 5.94995 3.68586 5.1119 4.39822 4.39926C5.11058 3.68662 5.94829 3.12238 6.91134 2.70655C7.8744 2.29085 8.90336 2.08301 9.99822 2.08301C11.0932 2.08301 12.1225 2.29079 13.0859 2.70634C14.0494 3.1219 14.8875 3.68586 15.6001 4.39822C16.3127 5.11058 16.877 5.94829 17.2928 6.91134C17.7085 7.8744 17.9163 8.90336 17.9163 9.99822C17.9163 11.0932 17.7086 12.1225 17.293 13.0859C16.8775 14.0494 16.3135 14.8875 15.6011 15.6001C14.8888 16.3127 14.0511 16.877 13.088 17.2928C12.125 17.7085 11.096 17.9163 10.0011 17.9163Z" fill="#3D3F41"/>
</g>
</svg>
