<svg width="32" height="32" viewBox="0 0 32 32" fill="none" xmlns="http://www.w3.org/2000/svg">
<path fill-rule="evenodd" clip-rule="evenodd" d="M23 7.25C24.4332 7.25 25.7497 8.30091 25.75 9.77734V22.2227C25.7497 23.6991 24.4332 24.75 23 24.75H9C7.56684 24.75 6.25026 23.6991 6.25 22.2227V9.77734C6.25026 8.30091 7.56684 7.25 9 7.25H23ZM13.75 23.25H23C23.7756 23.25 24.2497 22.7096 24.25 22.2227V9.77734C24.2497 9.29044 23.7756 8.75 23 8.75H13.75V23.25ZM9 8.75C8.22439 8.75 7.75028 9.29044 7.75 9.77734V22.2227C7.75028 22.7096 8.22439 23.25 9 23.25H12.25V8.75H9Z" fill="#6F7173"/>
</svg>
