<svg width="22" height="22" viewBox="0 0 22 22" fill="none" xmlns="http://www.w3.org/2000/svg">
<path d="M10.9997 2C16.0623 2 20.1663 6.10406 20.1663 11.1667C20.1663 16.2293 16.0623 20.3333 10.9997 20.3333C5.93706 20.3333 1.83301 16.2293 1.83301 11.1667C1.83301 6.10406 5.93706 2 10.9997 2ZM10.9997 10.5271C10.6465 10.5271 10.3601 10.8135 10.3601 11.1667V14.5775C10.3601 14.9307 10.6465 15.2171 10.9997 15.2171C11.3529 15.2171 11.6392 14.9307 11.6392 14.5775V11.1667C11.6392 10.8135 11.3529 10.5271 10.9997 10.5271ZM10.9997 7.11628C10.6465 7.11628 10.3601 7.40261 10.3601 7.75581C10.3601 8.10902 10.6465 8.39535 10.9997 8.39535H11.008C11.3612 8.39535 11.6475 8.10902 11.6475 7.75581C11.6475 7.40261 11.3612 7.11628 11.008 7.11628H10.9997Z" fill="#A1A3A5"/>
</svg>
