<svg width="44" height="44" viewBox="0 0 44 44" fill="none" xmlns="http://www.w3.org/2000/svg">
<path d="M28.875 33.6876C28.8759 32.886 28.6755 32.097 28.2923 31.393C28.9442 31.1825 29.5435 30.8353 30.0504 30.3745C30.5572 29.9138 30.9599 29.3502 31.2314 28.7213C31.5029 28.0925 31.6371 27.4129 31.625 26.7281C31.6128 26.0432 31.4546 25.3689 31.1609 24.7501H36.4375C37.7139 24.7501 38.9379 24.243 39.8405 23.3405C40.743 22.438 41.25 21.2139 41.25 19.9376C41.25 18.6612 40.743 17.4371 39.8405 16.5346C38.9379 15.6321 37.7139 15.1251 36.4375 15.1251L22.6875 15.1251L23.7411 14.4685C24.2879 14.151 24.7668 13.729 25.1504 13.2264C25.5341 12.7239 25.8151 12.1507 25.9772 11.5396C26.3047 10.3054 26.1285 8.99167 25.4873 7.8874C24.8462 6.78312 23.7927 5.97877 22.5585 5.65128C21.3243 5.3238 20.0105 5.50001 18.9062 6.14115L17.4917 6.9438C7.06578 12.858 2.75 15.3055 2.75 23.3751C2.75455 27.3851 4.34953 31.2295 7.18504 34.065C10.0205 36.9005 13.865 38.4955 17.875 38.5H24.0625C25.3389 38.5 26.5629 37.993 27.4655 37.0905C28.368 36.188 28.875 34.9639 28.875 33.6876ZM17.875 35.7501C14.5941 35.7464 11.4485 34.4415 9.12857 32.1215C6.8086 29.8015 5.50364 26.656 5.5 23.3751C5.5 16.9074 8.59375 15.1526 18.8512 9.3363L20.2727 8.53021H20.2812C20.7545 8.25651 21.317 8.18188 21.8452 8.32272C22.3734 8.46355 22.8241 8.80834 23.0983 9.2813C23.2798 9.59459 23.3747 9.9505 23.3733 10.3126C23.3738 10.6751 23.2788 11.0314 23.0977 11.3455C22.9167 11.6596 22.656 11.9205 22.342 12.1018C22.3283 12.1088 22.315 12.1168 22.3025 12.1258L17.1462 15.3347C16.8934 15.4931 16.6989 15.7294 16.5921 16.008C16.4854 16.2866 16.4721 16.5924 16.5544 16.8792C16.6367 17.166 16.81 17.4183 17.0482 17.5979C17.2864 17.7775 17.5766 17.8748 17.875 17.8751H36.4375C36.9845 17.8751 37.5091 18.0924 37.8959 18.4791C38.2827 18.8659 38.5 19.3905 38.5 19.9376C38.5 20.4846 38.2827 21.0092 37.8959 21.396C37.5091 21.7828 36.9845 22.0001 36.4375 22.0001H24.75C24.3853 22.0001 24.0356 22.1449 23.7777 22.4028C23.5199 22.6606 23.375 23.0104 23.375 23.3751C23.375 23.7397 23.5199 24.0895 23.7777 24.3473C24.0356 24.6052 24.3853 24.7501 24.75 24.7501H26.8125C27.3595 24.7501 27.8841 24.9674 28.2709 25.3541C28.6577 25.7409 28.875 26.2655 28.875 26.8126C28.875 27.3596 28.6577 27.8842 28.2709 28.271C27.8841 28.6578 27.3595 28.8751 26.8125 28.8751H23.375C23.0103 28.8751 22.6606 29.0199 22.4027 29.2778C22.1449 29.5356 22 29.8854 22 30.2501C22 30.6147 22.1449 30.9645 22.4027 31.2223C22.6606 31.4802 23.0103 31.6251 23.375 31.6251H24.0625C24.6095 31.6251 25.1341 31.8424 25.5209 32.2291C25.9077 32.6159 26.125 33.1405 26.125 33.6876C26.125 34.2346 25.9077 34.7592 25.5209 35.146C25.1341 35.5328 24.6095 35.7501 24.0625 35.7501H17.875Z" fill="#BABCBE"/>
</svg>
