<svg width="24" height="24" viewBox="0 0 24 24" fill="none" xmlns="http://www.w3.org/2000/svg">
<path d="M9.30919 5.80017H15.5005L19.9004 15.8002H4.90039L9.30919 5.80017Z" fill="#A1A3A5"/>
<path d="M10.0864 1.80058H14.7144C14.8906 1.79566 15.0655 1.83555 15.2257 1.9172C15.3859 1.99885 15.5272 2.12009 15.6389 2.27167C15.7505 2.42326 15.8295 2.60118 15.8697 2.79185C15.91 2.98252 15.9106 3.1809 15.8714 3.37185L15.4857 5.80017H9.31507L8.9294 3.37185C8.89018 3.1809 8.89073 2.98252 8.93103 2.79185C8.97133 2.60118 9.0503 2.42326 9.16192 2.27167C9.27354 2.12009 9.41485 1.99885 9.57507 1.9172C9.7353 1.83555 9.91019 1.79566 10.0864 1.80058Z" fill="#3D3F41"/>
<path d="M19.4004 16C20.1734 16.0002 20.7998 16.6273 20.7998 17.4004V21.2002C20.7997 21.9732 20.1733 22.5994 19.4004 22.5996H5.40039C4.62726 22.5996 4.00011 21.9733 4 21.2002V17.4004C4 16.6272 4.62719 16 5.40039 16H19.4004ZM12.4004 17.2002C11.9586 17.2002 11.6007 17.5583 11.6006 18V20.6006C11.6008 21.0422 11.9587 21.4004 12.4004 21.4004C12.842 21.4002 13.2 21.0421 13.2002 20.6006V18C13.2001 17.5584 12.842 17.2004 12.4004 17.2002Z" fill="#3D3F41"/>
</svg>
