<svg width="48" height="48" viewBox="0 0 48 48" fill="none" xmlns="http://www.w3.org/2000/svg">
<path d="M0 24C0 10.7452 10.7452 0 24 0C37.2548 0 48 10.7452 48 24C48 37.2548 37.2548 48 24 48C10.7452 48 0 37.2548 0 24Z" fill="url(#paint0_radial_8128_32947)"/>
<path fill-rule="evenodd" clip-rule="evenodd" d="M30 28C30.4304 28 30.8131 28.2753 30.9492 28.6836L31.474 30.2617C31.5722 30.5561 31.7376 30.8236 31.957 31.043C32.1764 31.2624 32.4439 31.4278 32.7383 31.526L34.3164 32.0508C34.7247 32.1869 35 32.5696 35 33C35 33.4304 34.7247 33.8131 34.3164 33.9492L32.7383 34.474C32.4439 34.5722 32.1764 34.7376 31.957 34.957C31.7376 35.1764 31.5722 35.4439 31.474 35.7383L30.9492 37.3164C30.8131 37.7247 30.4304 38 30 38C29.5696 38 29.1869 37.7247 29.0508 37.3164L28.526 35.7383C28.4278 35.4439 28.2624 35.1764 28.043 34.957C27.8236 34.7376 27.5561 34.5722 27.2617 34.474L25.6836 33.9492C25.2753 33.8131 25 33.4304 25 33C25 32.5696 25.2753 32.1869 25.6836 32.0508L27.2617 31.526C27.5561 31.4278 27.8236 31.2624 28.043 31.043C28.2624 30.8236 28.4278 30.5561 28.526 30.2617L29.0508 28.6836C29.1869 28.2753 29.5696 28 30 28ZM30 31.7786C29.8443 32.0228 29.6632 32.2509 29.457 32.457C29.2509 32.6632 29.0228 32.8443 28.7786 33C29.0228 33.1557 29.2509 33.3368 29.457 33.543C29.6629 33.7489 29.8444 33.9762 30 34.2201C30.1556 33.9762 30.3371 33.7489 30.543 33.543C30.7489 33.3371 30.9762 33.1556 31.2201 33C30.9762 32.8444 30.7489 32.6629 30.543 32.457C30.3368 32.2509 30.1557 32.0228 30 31.7786Z" fill="#3D3F41"/>
<path fill-rule="evenodd" clip-rule="evenodd" d="M20 14C20.4464 14.0001 20.8382 14.2961 20.9609 14.7253L22.0456 18.5195C22.279 19.3364 22.717 20.0803 23.3177 20.681C23.9184 21.2817 24.6624 21.7197 25.4792 21.9531L29.2747 23.0391C29.704 23.1618 30 23.5536 30 24C29.9999 24.4464 29.7039 24.8382 29.2747 24.9609L25.4805 26.0456C24.6636 26.279 23.9197 26.717 23.319 27.3177C22.7183 27.9184 22.2803 28.6624 22.0469 29.4792C22.0457 29.4832 22.0429 29.4868 22.0417 29.4909L20.9609 33.2747C20.8382 33.7039 20.4464 34 20 34C19.5536 34 19.1618 33.7039 19.0391 33.2747L17.9544 29.4805C17.721 28.6636 17.283 27.9197 16.6823 27.319C16.0816 26.7183 15.3376 26.2803 14.5208 26.0469L10.7253 24.9609C10.296 24.8382 10 24.4464 10 24C10.0001 23.5536 10.2961 23.1618 10.7253 23.0391L14.5195 21.9544C15.3364 21.721 16.0803 21.283 16.681 20.6823C17.2817 20.0816 17.7197 19.3376 17.9531 18.5208L19.0391 14.7253L19.0964 14.5703C19.2598 14.2262 19.6095 14 20 14ZM19.8763 19.0703C19.5494 20.2139 18.936 21.2554 18.0951 22.0964C17.2541 22.9374 16.2126 23.5507 15.069 23.8776L14.638 24L15.0703 24.1237C16.2139 24.4506 17.2554 25.064 18.0964 25.9049C18.9374 26.7459 19.5507 27.7874 19.8776 28.931L20 29.3594L20.1224 28.931L20.1302 28.9076C20.4586 27.7725 21.0693 26.7393 21.9049 25.9036C22.7459 25.0626 23.7874 24.4493 24.931 24.1224L25.3607 23.9987L24.9297 23.8763C23.7861 23.5494 22.7446 22.936 21.9036 22.0951C21.0626 21.2541 20.4493 20.2126 20.1224 19.069L19.9987 18.638L19.8763 19.0703Z" fill="#3D3F41"/>
<path fill-rule="evenodd" clip-rule="evenodd" d="M32 10C32.4588 10 32.8587 10.3128 32.9701 10.7578L33.3151 12.1367C33.469 12.7521 33.7871 13.3158 34.2357 13.7643C34.6842 14.2129 35.2466 14.531 35.862 14.6849L37.2422 15.0299C37.6872 15.1413 38 15.5412 38 16C38 16.4588 37.6872 16.8587 37.2422 16.9701L35.8633 17.3151C35.2479 17.469 34.6842 17.7871 34.2357 18.2357C33.7871 18.6842 33.469 19.2466 33.3151 19.862L32.9701 21.2422C32.8587 21.6872 32.4588 22 32 22C31.5412 22 31.1413 21.6872 31.0299 21.2422L30.6849 19.8633C30.5312 19.2482 30.2125 18.6855 29.7643 18.237C29.3159 17.7884 28.7533 17.4691 28.138 17.3151L26.7578 16.9701C26.3126 16.8588 26 16.4589 26 16C26 15.5411 26.3126 15.1412 26.7578 15.0299L28.138 14.6849L28.3672 14.6198C28.893 14.4496 29.372 14.1555 29.7643 13.763C30.2125 13.3145 30.5312 12.7531 30.6849 12.138L31.0299 10.7578L31.0846 10.5964C31.2422 10.2387 31.5987 10 32 10ZM32 14.1211C31.7703 14.5032 31.4964 14.8589 31.1784 15.1771C30.8599 15.4957 30.5037 15.77 30.1211 16C30.5037 16.23 30.8599 16.5043 31.1784 16.8229C31.4961 17.1408 31.7704 17.4959 32 17.8776C32.2297 17.4956 32.5036 17.1397 32.8216 16.8216C33.1397 16.5036 33.4956 16.2297 33.8776 16C33.4956 15.7703 33.1397 15.4964 32.8216 15.1784C32.5033 14.8601 32.2298 14.5034 32 14.1211Z" fill="#3D3F41"/>
<defs>
<radialGradient id="paint0_radial_8128_32947" cx="0" cy="0" r="1" gradientUnits="userSpaceOnUse" gradientTransform="translate(24 24) rotate(90) scale(24)">
<stop stop-color="#E8FFD8"/>
<stop offset="1" stop-color="#E8FFD8" stop-opacity="0"/>
</radialGradient>
</defs>
</svg>
