<svg width="24" height="24" viewBox="0 0 24 24" fill="none" xmlns="http://www.w3.org/2000/svg">
<mask id="mask0_8266_14000" style="mask-type:alpha" maskUnits="userSpaceOnUse" x="0" y="0" width="24" height="24">
<rect width="24" height="24" fill="#D9D9D9"/>
</mask>
<g mask="url(#mask0_8266_14000)">
<path d="M6.71878 15C6.50318 15 6.32949 14.9337 6.19769 14.8011C6.0659 14.6687 6 14.5142 6 14.3376C6 14.2933 6.07438 14.14 6.22315 13.8777L11.2367 9.30307C11.3518 9.19781 11.4708 9.12098 11.5939 9.07259C11.7169 9.0242 11.8523 9 12 9C12.1477 9 12.2831 9.0242 12.4061 9.07259C12.5292 9.12098 12.6482 9.19781 12.7633 9.30307L17.7772 13.8777C17.8462 13.9409 17.9006 14.0114 17.9403 14.0893C17.9801 14.167 18 14.2504 18 14.3394C18 14.5173 17.9341 14.6719 17.8023 14.8033C17.6705 14.9344 17.4968 15 17.2812 15H6.71878Z" fill="#FF4242"/>
</g>
</svg>
